name Walk3.mot
datacolumns 19
datarows 15
range 2.41100000 2.42500000
endheader

                time	   L_ground_force_vx	   L_ground_force_vy	   L_ground_force_vz	   L_ground_force_px	   L_ground_force_py	   L_ground_force_pz	   R_ground_force_vx	   R_ground_force_vy	   R_ground_force_vz	   R_ground_force_px	   R_ground_force_py	   R_ground_force_pz	   L_ground_torque_x	   L_ground_torque_y	   L_ground_torque_z	   R_ground_torque_x	   R_ground_torque_y	   R_ground_torque_z	
          2.41100000	          0.00000000	          0.00000000	          0.00000000	          0.00000000	          0.00000000	          0.00000000	         16.34671788	        759.11084430	         55.40386257	         -0.26001319	          0.00000000	         -0.09981423	          0.00000000	          0.00000000	          0.00000000	          0.00000000	          2.64268486	          0.00000000	
          2.41200000	          0.00000000	          0.00000000	          0.00000000	          0.00000000	          0.00000000	          0.00000000	         16.64733742	        759.37200825	         55.46850629	         -0.25980864	          0.00000000	         -0.09977138	          0.00000000	          0.00000000	          0.00000000	          0.00000000	          2.59616000	          0.00000000	
          2.41300000	          0.00000000	          0.00000000	          0.00000000	          0.00000000	          0.00000000	          0.00000000	         16.96524073	        759.75034529	         55.51732211	         -0.25959504	          0.00000000	         -0.09977810	          0.00000000	          0.00000000	          0.00000000	          0.00000000	          2.55911085	          0.00000000	
          2.41400000	          0.00000000	          0.00000000	          0.00000000	          0.00000000	          0.00000000	          0.00000000	         17.29847436	        760.24975305	         55.55336404	         -0.25936033	          0.00000000	         -0.09983891	          0.00000000	          0.00000000	          0.00000000	          0.00000000	          2.53841803	          0.00000000	
          2.41500000	          0.00000000	          0.00000000	          0.00000000	          0.00000000	          0.00000000	          0.00000000	         17.64311213	        760.82677418	         55.59075840	         -0.25910170	          0.00000000	         -0.09992742	          0.00000000	          0.00000000	          0.00000000	          0.00000000	          2.53385392	          0.00000000	
          2.41600000	          0.00000000	          0.00000000	          0.00000000	          0.00000000	          0.00000000	          0.00000000	         17.98968669	        761.42574296	         55.64665310	         -0.25882327	          0.00000000	         -0.10001673	          0.00000000	          0.00000000	          0.00000000	          0.00000000	          2.54054246	          0.00000000	
          2.41700000	          0.00000000	          0.00000000	          0.00000000	          0.00000000	          0.00000000	          0.00000000	         18.32807225	        762.00219031	         55.72907376	         -0.25852960	          0.00000000	         -0.10010529	          0.00000000	          0.00000000	          0.00000000	          0.00000000	          2.55447868	          0.00000000	
          2.41800000	          0.00000000	          0.00000000	          0.00000000	          0.00000000	          0.00000000	          0.00000000	         18.65888398	        762.54487684	         55.83084319	         -0.25822876	          0.00000000	         -0.10020015	          0.00000000	          0.00000000	          0.00000000	          0.00000000	          2.57250435	          0.00000000	
          2.41900000	          0.00000000	          0.00000000	          0.00000000	          0.00000000	          0.00000000	          0.00000000	         18.99585402	        763.06488249	         55.93541305	         -0.25793054	          0.00000000	         -0.10028923	          0.00000000	          0.00000000	          0.00000000	          0.00000000	          2.58949786	          0.00000000	
          2.42000000	          0.00000000	          0.00000000	          0.00000000	          0.00000000	          0.00000000	          0.00000000	         19.35433261	        763.56428181	         56.03087398	         -0.25763826	          0.00000000	         -0.10034502	          0.00000000	          0.00000000	          0.00000000	          0.00000000	          2.59972233	          0.00000000	
          2.42100000	          0.00000000	          0.00000000	          0.00000000	          0.00000000	          0.00000000	          0.00000000	         19.73810709	        764.02704185	         56.11543785	         -0.25735068	          0.00000000	         -0.10035499	          0.00000000	          0.00000000	          0.00000000	          0.00000000	          2.59968774	          0.00000000	
          2.42200000	          0.00000000	          0.00000000	          0.00000000	          0.00000000	          0.00000000	          0.00000000	         20.13523444	        764.43606283	         56.19017837	         -0.25706965	          0.00000000	         -0.10033845	          0.00000000	          0.00000000	          0.00000000	          0.00000000	          2.58762574	          0.00000000	
          2.42300000	          0.00000000	          0.00000000	          0.00000000	          0.00000000	          0.00000000	          0.00000000	         20.52757367	        764.79067202	         56.25344105	         -0.25680170	          0.00000000	         -0.10032194	          0.00000000	          0.00000000	          0.00000000	          0.00000000	          2.56207235	          0.00000000	
          2.42400000	          0.00000000	          0.00000000	          0.00000000	          0.00000000	          0.00000000	          0.00000000	         20.90576348	        765.10861838	         56.30395421	         -0.25655681	          0.00000000	         -0.10030362	          0.00000000	          0.00000000	          0.00000000	          0.00000000	          2.52415829	          0.00000000	
          2.42500000	          0.00000000	          0.00000000	          0.00000000	          0.00000000	          0.00000000	          0.00000000	         21.27338970	        765.41861278	         56.34682736	         -0.25634122	          0.00000000	         -0.10025769	          0.00000000	          0.00000000	          0.00000000	          0.00000000	          2.48062162	          0.00000000	
